<svg width="386" height="455" viewBox="0 0 386 455" fill="none" xmlns="http://www.w3.org/2000/svg">
<path fill-rule="evenodd" clip-rule="evenodd" d="M187.033 133.128C189.013 133.043 191.002 133 193 133C194.998 133 196.987 133.043 198.967 133.128L197.25 173.091C195.842 173.031 194.425 173 193 173C191.575 173 190.158 173.031 188.75 173.091L187.033 133.128ZM210.868 134.157C214.848 134.676 218.777 135.366 222.646 136.22L214.023 175.28C211.29 174.677 208.512 174.188 205.694 173.821L210.868 134.157ZM234.202 139.31C238.026 140.514 241.777 141.882 245.447 143.403L230.125 180.353C227.533 179.277 224.884 178.312 222.184 177.462L234.202 139.31ZM256.285 148.466C259.829 150.315 263.281 152.313 266.633 154.453L245.109 188.168C242.736 186.653 240.292 185.238 237.786 183.931L256.285 148.466ZM276.414 161.314C279.575 163.743 282.626 166.306 285.56 168.996L258.528 198.48C256.447 196.571 254.282 194.753 252.041 193.031L276.414 161.314ZM294.004 177.44C296.694 180.374 299.257 183.425 301.686 186.586L269.969 210.959C268.247 208.717 266.429 206.553 264.52 204.472L294.004 177.44ZM308.547 196.367C310.687 199.719 312.685 203.171 314.534 206.714L279.069 225.214C277.762 222.708 276.347 220.264 274.832 217.891L308.547 196.367ZM319.596 217.553C321.118 221.223 322.486 224.974 323.69 228.798L285.538 240.816C284.688 238.116 283.723 235.467 282.647 232.875L319.596 217.553ZM326.78 240.354C327.634 244.223 328.324 248.152 328.843 252.132L289.179 257.306C288.811 254.488 288.323 251.71 287.72 248.977L326.78 240.354ZM329.872 264.033C329.957 266.013 330 268.002 330 270C330 271.998 329.957 273.987 329.872 275.967L289.909 274.25C289.969 272.842 290 271.425 290 270C290 268.575 289.969 267.158 289.909 265.75L329.872 264.033ZM328.843 287.868C328.324 291.848 327.634 295.777 326.78 299.646L287.72 291.023C288.323 288.29 288.812 285.512 289.179 282.694L328.843 287.868ZM323.69 311.202C322.486 315.026 321.118 318.777 319.596 322.447L282.647 307.125C283.723 304.533 284.688 301.884 285.538 299.184L323.69 311.202ZM314.534 333.285C312.685 336.829 310.687 340.281 308.547 343.633L274.832 322.109C276.347 319.736 277.762 317.292 279.069 314.786L314.534 333.285ZM301.686 353.414C299.257 356.575 296.694 359.626 294.004 362.56L264.52 335.528C266.429 333.447 268.247 331.283 269.969 329.041L301.686 353.414ZM285.56 371.004C282.626 373.694 279.575 376.257 276.414 378.686L252.041 346.969C254.283 345.247 256.447 343.429 258.528 341.52L285.56 371.004ZM266.633 385.547C263.281 387.687 259.829 389.685 256.285 391.534L237.786 356.069C240.292 354.762 242.736 353.347 245.109 351.832L266.633 385.547ZM245.447 396.596C241.777 398.118 238.026 399.486 234.202 400.69L222.184 362.538C224.884 361.688 227.533 360.723 230.125 359.647L245.447 396.596ZM222.646 403.78C218.777 404.634 214.848 405.324 210.868 405.843L205.694 366.179C208.512 365.812 211.29 365.323 214.023 364.72L222.646 403.78ZM193 407C191.002 407 189.013 406.957 187.033 406.872L188.75 366.909C190.158 366.969 191.575 367 193 367C194.425 367 195.842 366.969 197.25 366.909L198.967 406.872C196.987 406.957 194.998 407 193 407Z" fill="#57534E"/>
<path fill-rule="evenodd" clip-rule="evenodd" d="M163.354 136.22C167.223 135.366 171.152 134.676 175.132 134.157L180.306 173.821C177.488 174.188 174.71 174.677 171.977 175.28L163.354 136.22ZM140.553 143.403C144.223 141.882 147.974 140.514 151.798 139.31L163.816 177.462C161.116 178.312 158.467 179.277 155.875 180.353L140.553 143.403ZM119.367 154.453C122.719 152.313 126.171 150.315 129.714 148.466L148.214 183.931C145.708 185.238 143.264 186.653 140.891 188.168L119.367 154.453ZM100.44 168.996C103.374 166.306 106.425 163.743 109.586 161.314L133.959 193.031C131.717 194.753 129.553 196.571 127.472 198.48L100.44 168.996ZM84.3139 186.586C86.7428 183.425 89.3063 180.374 91.9956 177.44L121.48 204.472C119.571 206.553 117.753 208.717 116.031 210.959L84.3139 186.586ZM71.4659 206.715C73.3145 203.171 75.3129 199.719 77.4526 196.367L111.168 217.891C109.653 220.264 108.238 222.708 106.931 225.214L71.4659 206.715ZM62.3097 228.798C63.5142 224.974 64.8815 221.223 66.4035 217.553L103.353 232.875C102.277 235.467 101.312 238.116 100.462 240.816L62.3097 228.798ZM57.1569 252.132C57.6761 248.152 58.3664 244.223 59.2204 240.354L98.28 248.977C97.6767 251.71 97.1885 254.488 96.8209 257.306L57.1569 252.132ZM56 270C56 268.002 56.0429 266.013 56.128 264.033L96.0911 265.75C96.0306 267.158 96 268.575 96 270C96 271.425 96.0306 272.842 96.0911 274.25L56.128 275.967C56.0429 273.987 56 271.998 56 270ZM59.2204 299.646C58.3664 295.777 57.6761 291.848 57.1569 287.868L96.8209 282.694C97.1885 285.512 97.6767 288.29 98.28 291.023L59.2204 299.646ZM66.4035 322.447C64.8816 318.777 63.5142 315.026 62.3097 311.202L100.462 299.184C101.312 301.884 102.277 304.533 103.353 307.125L66.4035 322.447ZM77.4526 343.633C75.313 340.281 73.3145 336.829 71.4659 333.286L106.931 314.786C108.238 317.292 109.653 319.736 111.168 322.109L77.4526 343.633ZM91.9957 362.56C89.3063 359.626 86.7428 356.575 84.3139 353.414L116.031 329.041C117.753 331.283 119.571 333.447 121.48 335.528L91.9957 362.56ZM109.586 378.686C106.425 376.257 103.374 373.694 100.44 371.004L127.472 341.52C129.553 343.429 131.717 345.247 133.959 346.969L109.586 378.686ZM129.715 391.534C126.171 389.686 122.719 387.687 119.367 385.547L140.891 351.832C143.264 353.347 145.708 354.762 148.214 356.069L129.715 391.534ZM151.798 400.69C147.974 399.486 144.223 398.118 140.553 396.596L155.875 359.647C158.467 360.723 161.116 361.688 163.816 362.538L151.798 400.69ZM175.132 405.843C171.152 405.324 167.223 404.634 163.354 403.78L171.977 364.72C174.71 365.323 177.488 365.812 180.306 366.179L175.132 405.843Z" fill="#D6D3D1" fill-opacity="0.2"/>
<path fill-rule="evenodd" clip-rule="evenodd" d="M148.257 14.107C162.722 11.2454 177.666 0 192.945 0C208.224 0 223.168 11.2454 237.633 14.107C245.555 15.6741 250.706 52.6082 249.139 60.5297C247.572 68.4511 239.88 73.6023 231.958 72.0352C219.352 69.5413 206.309 68.2315 192.945 68.2315C179.581 68.2315 166.538 69.5413 153.932 72.0352C146.01 73.6023 138.318 68.4511 136.751 60.5297C135.184 52.6082 140.335 15.6741 148.257 14.107ZM85.9474 81.5959C90.4396 88.306 88.6418 97.3872 81.9317 101.88C60.1347 116.472 41.3649 135.242 26.7722 157.039C22.2799 163.749 13.1986 165.547 6.48859 161.055C-0.221457 156.562 -2.01932 147.481 2.47295 140.771C19.1922 115.798 40.6904 94.2995 65.6638 77.5803C72.3738 73.088 81.4551 74.8859 85.9474 81.5959ZM299.943 81.5959C304.435 74.8859 313.516 73.088 320.226 77.5803C345.2 94.2995 366.698 115.798 383.417 140.771C387.909 147.481 386.111 156.562 379.401 161.055C372.691 165.547 363.61 163.749 359.118 157.039C344.525 135.242 325.755 116.472 303.958 101.88C297.248 97.3873 295.45 88.306 299.943 81.5959Z" fill="#57534E"/>
<path fill-rule="evenodd" clip-rule="evenodd" d="M193 115C107.396 115 38 184.396 38 270C38 355.604 107.396 425 193 425C278.604 425 348 355.604 348 270C348 184.396 278.604 115 193 115ZM8 270C8 167.827 90.8273 85 193 85C295.173 85 378 167.827 378 270C378 372.173 295.173 455 193 455C90.8273 455 8 372.173 8 270Z" fill="#57534E"/>
</svg>
