<svg width="244" height="244" viewBox="0 0 244 244" fill="none" xmlns="http://www.w3.org/2000/svg">
<path d="M239.794 121.794C239.794 186.963 186.963 239.794 121.794 239.794C56.6243 239.794 3.7939 186.963 3.7939 121.794C3.7939 56.6243 56.6243 3.79389 121.794 3.79389C186.963 3.79389 239.794 56.6243 239.794 121.794Z" fill="url(#paint0_linear_5_71)"/>
<path fill-rule="evenodd" clip-rule="evenodd" d="M215.108 40.1259C218.021 43.4478 217.347 48.4895 213.845 51.1834L170.368 84.6265C162.96 90.3253 169.668 101.933 178.304 98.3598L228.993 77.3878C233.075 75.6986 237.781 77.6321 239.202 81.8156C240.974 87.0329 242.389 92.3448 243.446 97.7131C244.3 102.048 241.188 106.072 236.807 106.645L122.286 121.639C122.259 121.643 122.233 121.653 122.211 121.67C122.13 121.733 122.13 121.855 122.211 121.918C122.233 121.934 122.259 121.945 122.286 121.949L236.807 136.943C241.188 137.516 244.3 141.54 243.446 145.875C242.389 151.243 240.974 156.555 239.202 161.772C237.781 165.956 233.076 167.889 228.993 166.2L178.305 145.228C169.668 141.655 162.96 153.262 170.368 158.961L213.845 192.404C217.347 195.098 218.021 200.14 215.108 203.462C213.309 205.513 211.432 207.518 209.475 209.475C207.518 211.432 205.513 213.309 203.462 215.108C200.14 218.021 195.098 217.347 192.404 213.845L158.961 170.368C153.262 162.96 141.655 169.668 145.228 178.304L166.2 228.993C167.889 233.076 165.956 237.781 161.772 239.202C156.555 240.974 151.243 242.389 145.875 243.446C141.54 244.3 137.516 241.188 136.943 236.807L121.949 122.286C121.945 122.259 121.934 122.233 121.918 122.211C121.855 122.13 121.733 122.13 121.67 122.211C121.653 122.233 121.643 122.259 121.639 122.286L106.645 236.807C106.072 241.188 102.048 244.3 97.7131 243.446C92.3448 242.389 87.0329 240.974 81.8156 239.202C77.6321 237.781 75.6986 233.076 77.3878 228.993L98.3598 178.305C101.933 169.668 90.3254 162.96 84.6265 170.368L51.1834 213.845C48.4895 217.347 43.4478 218.021 40.1259 215.108C38.075 213.309 36.0693 211.432 34.1127 209.475C32.156 207.518 30.2785 205.513 28.4799 203.462C25.5668 200.14 26.2408 195.098 29.7428 192.404L73.2194 158.961C80.628 153.262 73.9202 141.655 65.2833 145.228L14.5949 166.2C10.5123 167.889 5.807 165.956 4.38599 161.772C2.61384 156.555 1.199 151.243 0.141454 145.875C-0.712517 141.54 2.40011 137.516 6.781 136.943L121.302 121.949C121.329 121.945 121.355 121.934 121.377 121.918C121.458 121.855 121.458 121.733 121.377 121.67C121.355 121.653 121.329 121.643 121.302 121.639L6.78101 106.645C2.40012 106.072 -0.712515 102.048 0.141457 97.7131C1.199 92.3448 2.61384 87.0329 4.38599 81.8156C5.807 77.6321 10.5123 75.6986 14.5949 77.3878L65.2832 98.3597C73.9201 101.933 80.628 90.3253 73.2194 84.6265L29.7428 51.1834C26.2408 48.4895 25.5668 43.4478 28.4799 40.1259C30.2785 38.075 32.156 36.0693 34.1127 34.1127C36.0693 32.156 38.075 30.2785 40.1259 28.4799C43.4478 25.5668 48.4895 26.2407 51.1834 29.7428L84.6265 73.2194C90.3253 80.628 101.933 73.9202 98.3598 65.2833L77.3878 14.5949C75.6986 10.5123 77.6321 5.807 81.8156 4.38599C87.0329 2.61384 92.3448 1.199 97.7131 0.141458C102.048 -0.712514 106.072 2.40012 106.645 6.78101L121.639 121.302C121.643 121.329 121.653 121.355 121.67 121.377C121.733 121.458 121.855 121.458 121.918 121.377C121.934 121.355 121.945 121.329 121.949 121.302L136.943 6.781C137.516 2.40012 141.54 -0.712516 145.875 0.141454C151.243 1.19899 156.555 2.61384 161.772 4.38599C165.956 5.807 167.889 10.5123 166.2 14.5949L145.228 65.2832C141.655 73.9201 153.262 80.628 158.961 73.2194L192.404 29.7428C195.098 26.2407 200.14 25.5668 203.462 28.4799C205.513 30.2784 207.518 32.156 209.475 34.1127C211.432 36.0693 213.309 38.075 215.108 40.1259ZM121.9 121.672C121.9 121.671 121.898 121.67 121.898 121.672C121.898 121.672 121.898 121.672 121.898 121.673C121.899 121.674 121.9 121.673 121.9 121.672ZM121.89 121.691C121.89 121.691 121.889 121.691 121.89 121.691ZM121.793 121.705C121.793 121.706 121.795 121.706 121.795 121.705C121.795 121.704 121.794 121.704 121.794 121.704C121.794 121.704 121.794 121.704 121.794 121.704C121.793 121.704 121.793 121.704 121.793 121.705ZM121.69 121.673C121.69 121.672 121.69 121.672 121.69 121.672C121.689 121.67 121.687 121.671 121.688 121.672C121.688 121.673 121.689 121.674 121.69 121.673ZM121.673 121.69C121.674 121.689 121.673 121.688 121.672 121.688C121.671 121.687 121.67 121.689 121.672 121.69C121.672 121.69 121.673 121.69 121.673 121.69ZM121.673 121.898C121.673 121.898 121.672 121.898 121.672 121.898C121.67 121.898 121.671 121.9 121.672 121.9C121.673 121.9 121.674 121.899 121.673 121.898ZM121.69 121.915C121.689 121.914 121.688 121.914 121.688 121.916C121.687 121.917 121.689 121.918 121.69 121.916C121.69 121.916 121.69 121.915 121.69 121.915ZM121.898 121.915C121.898 121.915 121.898 121.916 121.898 121.916C121.898 121.918 121.9 121.917 121.9 121.916C121.9 121.914 121.899 121.914 121.898 121.915ZM121.915 121.898C121.914 121.899 121.914 121.9 121.916 121.9C121.917 121.9 121.918 121.898 121.916 121.898C121.916 121.898 121.915 121.898 121.915 121.898ZM121.915 121.69C121.915 121.69 121.916 121.69 121.916 121.69C121.918 121.689 121.917 121.687 121.916 121.688C121.914 121.688 121.914 121.689 121.915 121.69ZM121.795 121.883C121.795 121.882 121.793 121.882 121.793 121.883C121.793 121.884 121.793 121.884 121.794 121.884C121.794 121.884 121.794 121.884 121.794 121.884C121.795 121.884 121.795 121.884 121.795 121.883ZM121.89 121.897C121.889 121.897 121.89 121.897 121.89 121.897ZM121.897 121.89C121.897 121.89 121.897 121.889 121.897 121.89ZM121.883 121.793C121.882 121.793 121.882 121.795 121.883 121.795C121.884 121.795 121.884 121.794 121.884 121.794C121.884 121.794 121.884 121.794 121.884 121.794C121.884 121.793 121.884 121.793 121.883 121.793ZM121.698 121.691C121.698 121.691 121.698 121.691 121.698 121.691ZM121.691 121.698C121.691 121.698 121.691 121.698 121.691 121.698ZM121.705 121.793C121.706 121.793 121.706 121.795 121.705 121.795C121.704 121.795 121.704 121.795 121.704 121.794C121.704 121.794 121.704 121.794 121.704 121.794C121.704 121.793 121.704 121.793 121.705 121.793Z" fill="url(#paint1_linear_5_71)"/>
<defs>
<linearGradient id="paint0_linear_5_71" x1="121.794" y1="0" x2="121.794" y2="243.588" gradientUnits="userSpaceOnUse">
<stop stop-color="#2D2D2D"/>
<stop offset="1" stop-color="#1C1C1C"/>
</linearGradient>
<linearGradient id="paint1_linear_5_71" x1="120.598" y1="247.794" x2="120.598" y2="-2.70606" gradientUnits="userSpaceOnUse">
<stop stop-color="#64748B"/>
<stop offset="1" stop-color="#FECED4"/>
</linearGradient>
</defs>
</svg>
